<svg id="Capa_1" data-name="Capa 1" xmlns="http://www.w3.org/2000/svg" viewBox="0 0 1080 1080"><defs><style>.cls-1{fill:#f15a24;}</style></defs><path class="cls-1" d="M549.51,546.06l55-23.29c36-15.25,53.88-.43,54.26,40.52L660,692.73c.37,40.95-17.1,70.74-53.1,86l-55,23.29Zm56.36,196.38c11.46-4.86,18.26-14.35,18.1-32.63l-1.23-133.1c-.16-18.28-7.1-22-18.55-17.1l-18.34,7.77,1.68,182.82Z"/><path class="cls-1" d="M672.52,504.15l105.1-57.67,1.11,33.68-66.57,36.53L714.22,579l52.91-29,1.11,33.68-52.9,29,2.38,72.43,66.57-36.52,1.11,33.69L680.3,740Z"/><path class="cls-1" d="M319.45,430.15l33.42-18.41,185.88,76.68,50.58-23.82,39.22,17.68-85.83,40.85Z"/><path class="cls-1" d="M453.14,365.73,494.76,346l259.32,74-30.72,14.54L672.6,419.56l.64.26-34.91,16.52,38.94,20.08-28.49,13.47Zm185.61,43.71L512.61,371.88l-.56.26,99,50.39Z"/><path class="cls-1" d="M282.32,644.77l.79-14,34.8,13.62-1,16.86c-1,17.58,6,26.78,17.73,31.36s19.43,1.14,20.45-17.13c1.15-20.39-5.48-36.27-28.33-67.84-29.18-40.51-38.09-64.47-36.5-92.58,2.17-38.66,22.51-53.69,58.3-39.68s52.27,43.44,50.06,82.8l-.58,10.19L363.3,554.71l.71-12.66c1-17.57-5.33-26.87-17-31.45s-18.78-.52-19.73,16.35c-1,17.92,5.95,33.94,28.8,65.5,29.18,40.51,37.77,64,36.06,94.57-2.25,40.06-22.93,55-59.06,40.82S280.11,684.13,282.32,644.77Z"/><path class="cls-1" d="M420.47,509.32l101.23,37-1.17,35.18-64.12-23.43-2.18,65.08,50.95,18.62L504,676.94l-50.95-18.62L450.51,734l64.12,23.43-1.17,35.18-101.25-37Z"/><path class="cls-1" d="M723.2,369.07l-11.73-12.46c-3.37-3.58-3.56-7.4-.15-10.61s7.21-2.79,10.58.78l2.31,2.45-3.35,3.16-2.52-2.68c-1.44-1.53-2.74-1.49-3.8-.49s-1.18,2.3.25,3.82L727,366c1.44,1.53,2.71,1.46,3.77.46s1.21-2.27-.22-3.79l-3.34-3.55,3.34-3.15,3.09,3.28c3.37,3.57,3.57,7.39.15,10.61S726.57,372.64,723.2,369.07Z"/><path class="cls-1" d="M738.3,355.53,729.9,341c-2.55-4.41-1.75-8.24,2.38-10.63s7.85-1.19,10.41,3.22l8.39,14.49c2.56,4.41,1.76,8.24-2.37,10.64S740.85,359.94,738.3,355.53Zm8.73-4.69-8.71-15c-1.14-2-2.42-2.23-3.76-1.46s-1.75,2-.61,4l8.72,15c1.14,2,2.42,2.23,3.75,1.45S748.17,352.81,747,350.84Z"/><path class="cls-1" d="M750.85,321.77l6.72-1.77,8.8,21.27.08,0-2.8-22.84,6.71-1.76,8.11,30.81L774,348.62l-6.14-23.33-.08,0,2.71,24.23-3.93,1L757,328.15l-.09,0,6.14,23.33L759,352.58Z"/><path class="cls-1" d="M783.75,315.42l7.16.07c4.87.05,7.23,2.85,7.18,7.94l0,3.14c0,5.1-2.46,7.85-7.33,7.81l-2.3,0-.12,13-4.87,0Zm7,14.41c1.55,0,2.39-.71,2.41-3l0-3.77c0-2.28-.81-3-2.36-3l-2.3,0-.09,9.78Z"/><path class="cls-1" d="M808.86,317.08l4.76,1-5.77,26.69,7.83,1.69-1,4.45-12.59-2.72Z"/><path class="cls-1" d="M832,323.56l12,5.61-1.92,4.12-7.62-3.55-3.56,7.63,6.06,2.82L835,344.32l-6-2.83-4.14,8.86,7.62,3.56L830.52,358l-12-5.61Z"/><path class="cls-1" d="M833.48,360l2.68-3.68a6.07,6.07,0,0,0,1.18,1.09c1.57,1.15,2.88.92,4.12-.77l14.4-19.75,3.93,2.87-14.32,19.64c-3.09,4.23-6.42,4.9-10.28,2.08A11.25,11.25,0,0,1,833.48,360Z"/><path class="cls-1" d="M850.47,363.44l12.38-11.28c3.76-3.43,7.67-3.47,10.89.06s2.82,7.43-.94,10.86l-12.38,11.28c-3.77,3.44-7.68,3.47-10.9-.06S846.7,366.87,850.47,363.44ZM856.9,371l12.85-11.71c1.69-1.53,1.67-2.84.63-4s-2.34-1.28-4,.25l-12.85,11.71c-1.68,1.54-1.67,2.84-.63,4S855.22,372.51,856.9,371Z"/><path class="cls-1" d="M897,391.71l2,7.16c1.31,4.69-.72,7.73-5.63,9.11l-15.52,4.33c-4.91,1.38-8.22-.18-9.53-4.86l-2-7.16Zm-24.31,14.42c.41,1.5,1.45,2.17,3.64,1.56l16-4.46c2.19-.61,2.73-1.73,2.31-3.22l-.67-2.39L872,403.75Z"/><path class="cls-1" d="M902.73,417.85l.58,13.26-4.54.2-.38-8.4-8.41.37.3,6.68-4.55.2-.29-6.68-9.78.44.37,8.4-4.54.2-.59-13.26Z"/><path class="cls-1" d="M902.51,442.56l-1.27,7.05c-.86,4.79-4,6.65-9,5.75l-3.09-.55c-5-.91-7.32-3.75-6.46-8.54l.4-2.27-12.76-2.29.86-4.79Zm-15.38,4.52c-.28,1.52.29,2.48,2.53,2.88l3.72.67c2.24.4,3.1-.3,3.38-1.82l.4-2.27-9.63-1.73Z"/><path class="cls-1" d="M874.38,457.82l15.38,6.64c4.68,2,6.32,5.57,4.43,10s-5.6,5.63-10.28,3.61l-15.38-6.63c-4.68-2-6.32-5.57-4.43-10S869.7,455.81,874.38,457.82Zm-4.21,9,16,6.88c2.09.9,3.27.35,3.88-1.07s.2-2.66-1.88-3.56l-16-6.88c-2.08-.91-3.26-.35-3.88,1.07S868.08,465.9,870.17,466.8Z"/><path class="cls-1" d="M884.63,491.66l-4.33,5.77c-3,4-6.26,4.31-10.18,1.36l-1.57-1.17c-2.62-2-3.68-4-3.11-6.32l-.07-.06c-2.08,1.48-4.45.7-7.33-1.46l-4.47-3.36a9.69,9.69,0,0,0-3.41-1.9l3-4a10.06,10.06,0,0,1,3.4,2l4.65,3.49c2.37,1.78,3.64,1.68,5-.09l1-1.34-10.92-8.2,2.92-3.89Zm-14.9-2.89c-1.09,1.45-1.1,2.82.94,4.35l2,1.48c1.82,1.37,3.07,1.37,4.1,0l1.33-1.77-7.28-5.47Z"/><path class="cls-1" d="M861.74,510.87l3.89-3.28,2.93,3.48-11.49,9.7-2.94-3.48L858,514l-17.61-20.87,3.72-3.14Z"/><path class="cls-1" d="M848.78,526.09l-4.21,2.45-16-27.53,4.2-2.45Z"/><path class="cls-1" d="M835.73,533.21l-4.62,1.69-11.45-22.13-.08,0L825,537.11l-4.19,1.53-6.5-31.54,6.07-2.21Z"/><path class="cls-1" d="M807.46,517l2,16.63c.61,5.06-1.63,8.26-6.38,8.83s-7.68-2-8.29-7.07l-2-16.62c-.61-5.06,1.63-8.27,6.38-8.84S806.85,511.9,807.46,517Zm-9.88.87,2.08,17.26c.27,2.26,1.34,3,2.88,2.82s2.4-1.16,2.13-3.42l-2.08-17.26c-.27-2.26-1.34-3-2.88-2.82S797.31,515.57,797.58,517.83Z"/></svg>